<?xml version="1.0" encoding="UTF-8"?>
<svg width="1024" height="1024" version="1.1" viewBox="0 0 1024 1024" xmlns="http://www.w3.org/2000/svg">
	<defs>
		<linearGradient id="a" x1="0.5" x2="0.5" y1="0" y2="1">
			<stop stop-color="#90ffc8" offset="0"/>
			<stop stop-color="#48c0e0" offset="1"/>
		</linearGradient>
	</defs>
	<path d="m416.6 1016c-71.58-12.71-143.3-42.83-204.7-86.02-36.04-25.33-101-92.45-125.5-129.7-62.32-94.69-90.52-195.8-86-308.4 3.222-80.2 18.43-140.7 52.56-209.1 35.72-71.59 85.6-132.5 146.6-178.9 40.84-31.08 122.2-72.64 164.8-84.19 96.29-26.11 196.4-26.25 292.4-0.4074 56.84 15.3 174.9 81.89 190.4 107.4l-248.4 288.3-21.18-10.75c-55.45-28.15-123.3-2.077-150.6 57.83-12.36 27.19-11.35 67.22 2.368 93.65 30.5 58.79 98.85 80.94 153.7 49.8 23.41-13.29 44.37-36.94 40.87-46.1-1.859-4.867-8.982-6.159-33.97-6.159h-31.62v-55.38l130.9 5.183-1.864 26.08c-3.776 52.84-37.25 100.3-88.76 125.9-44.98 20.43-96.33 20.68-134.9 2.554-44.23-20.95-73.11-53.6-88.25-99.82-11.06-33.74-7.331-85.92 8.572-120 15.13-32.48 35.42-57.54 72.66-75.07s72.28-22.63 122.4-10.09c9.719 2.731 13.03 0.7177 31.49-19.17 11.35-12.22 22.22-25.03 24.16-28.46 5.08-8.973-8.794-18.92-40.33-28.91-176.6-55.94-349.5 107.2-303.8 286.7 11.2 44 29.03 74.92 63.08 109.4 77.77 78.71 185.7 94.59 285.4 41.99 35.43-18.69 80.33-65.47 97.74-101.8 15.03-31.39 26.11-71.62 26.21-95.09l0.0583-14.29 260.9 0.0489-2.287 41.96c-4.986 91.46-33.62 175.8-87.65 258.2-22.62 34.48-87.81 101.3-123.7 126.8-110.8 78.68-256.3 110.5-393.7 86.15zm196.8-47.04c135.7-30.62 253-119.8 315.8-240.2 29.45-56.36 56.77-157 46.13-169.9-6.816-8.253-54.68-6.451-59.04 2.222-1.638 3.264-7.434 25.04-12.88 48.39-16.88 72.37-56.75 141.1-112.5 194-33.01 31.29-51.93 44.55-93.38 65.47-43.32 21.86-73.47 31.55-120.9 38.86-92.74 14.29-193.3-5.709-269.5-53.6-15.88-9.983-33.02-20.74-38.08-23.89-8.765-5.47-10.06-4.811-27.14 13.85-9.863 10.77-18 22.36-18.09 25.75-0.2321 9.122 66.82 51.91 110.9 70.76 39.34 16.83 81.79 29.12 123.2 35.65 33.97 5.368 116.4 1.463 155.5-7.369zm-118.9-137.8c1.471-36.44-1.988-42.9-24.81-46.34-52.34-7.887-107.9-37.34-149.5-79.26-35.89-36.13-53.56-63.99-69.75-110-6.22-17.66-13.22-34.43-15.55-37.25-2.644-3.202-13.49-5.129-28.86-5.129-37.44 0-39.16 5.211-20.88 63.29 20.66 65.63 66.71 132.4 119.3 173 50.48 38.98 134 73.27 173.2 71.12l15.75-0.8635zm121.1 20.53c63.57-18.51 109.1-45.65 155.3-92.47 47.3-47.99 77.81-101.8 93.16-164.3 8.833-35.97 6.401-39.4-29.02-40.88-31.47-1.315-33.27-0.0463-40.14 28.25-6.976 28.72-32.95 77.78-55.76 105.3-36.51 44.09-93.55 79.44-150.3 93.16-15.71 3.798-30.78 8.661-33.48 10.81-5.2 4.121-7.189 62.62-2.296 67.54 5.205 5.231 28.64 2.447 62.56-7.431zm-416.5-45.06c18.83-21.97 20.13-27.58 8.828-37.86-13.23-12.03-48.02-69.4-61.16-100.8-30.48-94.66-41.46-182.9-16.06-267 21.08-69.23 55.61-127 104.9-175.5 51.45-50.63 125.7-91.13 192-104.7 15.8-3.241 31.3-8.038 34.44-10.66 7.669-6.396 7.855-48.52 0.2432-54.86-7.057-5.885-52.31 3.167-100.2 20.04-184.2 64.93-311.8 246.1-311.6 442.3 0.0669 61.41 24.61 155.7 55.62 213.7 23.3 43.58 62.28 94.94 72.05 94.94 2.301-1e-3 11.71-8.788 20.91-19.52zm32.73-316.7c1.675-3.264 5.925-21.96 9.443-41.54 4.438-24.7 11.91-47.11 24.41-73.18 29.09-54.72 72.69-100.4 123.4-125.5 85.1-38.59 177.8-40.91 254-4.969 13.54 6.495 27.35 11.81 30.69 11.81 8.354 0 35.54-34.15 32.84-41.24-2.805-7.346-51.89-30.85-86.53-41.45-118-36.07-248.1-3.786-340.6 84.45-59.45 56.75-94.37 122.9-107.1 202.7-5.449 34.27-2.678 37.51 30.84 35.99 17.84-0.8074 26.46-2.945 28.59-7.09zm534.6-332.7 17.23-19.8-8.321-8.901c-13.17-14.09-65.98-40.52-111.6-55.86-43.62-14.67-116.4-27.9-131.9-23.99-8.269 2.086-8.988 4.442-8.988 29.46 0 31.62-1.275 30.57 44.18 36.3 45.59 5.745 95.19 21.57 134.9 43.05 19.49 10.53 38.09 19.24 41.33 19.35 3.248 0.1121 13.66-8.71 23.13-19.6z" fill="url(#a)"/>
</svg>
